<svg width="205" height="32" viewBox="0 0 205 32" fill="none" xmlns="http://www.w3.org/2000/svg">
<rect width="14.5678" height="14.5678" rx="3.00634" fill="#4075DD"/>
<rect x="17.1094" width="14.5678" height="14.5678" rx="3.00634" fill="#313180"/>
<rect x="17.1094" y="17.0117" width="14.5678" height="14.5678" rx="3.00634" fill="#4075DD"/>
<rect y="17.0117" width="14.5678" height="14.5678" rx="3.00634" fill="#313180"/>
<rect x="8.5625" y="8.50391" width="14.5678" height="14.5678" rx="3.00634" fill="white" fill-opacity="0.2"/>
<path d="M197.379 27.7271C195.885 27.7271 194.737 27.4708 193.935 26.958C193.132 26.4453 192.541 25.8768 192.162 25.2526H191.561V27.259H187.414V3.85156H191.627V12.5792H192.229C192.475 12.1779 192.798 11.7989 193.199 11.4423C193.623 11.0856 194.169 10.7958 194.838 10.5728C195.529 10.3276 196.376 10.205 197.379 10.205C198.717 10.205 199.954 10.5394 201.091 11.2082C202.228 11.8547 203.142 12.8133 203.833 14.0839C204.524 15.3546 204.869 16.8928 204.869 18.6986V19.2336C204.869 21.0393 204.524 22.5775 203.833 23.8482C203.142 25.1189 202.228 26.0886 201.091 26.7574C199.954 27.4039 198.717 27.7271 197.379 27.7271ZM196.108 24.0488C197.401 24.0488 198.482 23.6364 199.352 22.8116C200.221 21.9644 200.656 20.7383 200.656 19.1333V18.7989C200.656 17.1938 200.221 15.9788 199.352 15.154C198.505 14.3069 197.424 13.8833 196.108 13.8833C194.815 13.8833 193.734 14.3069 192.865 15.154C191.995 15.9788 191.561 17.1938 191.561 18.7989V19.1333C191.561 20.7383 191.995 21.9644 192.865 22.8116C193.734 23.6364 194.815 24.0488 196.108 24.0488Z" fill="#4075DD"/>
<path d="M174.227 27.7252C173.046 27.7252 171.987 27.5246 171.051 27.1233C170.114 26.6998 169.368 26.0979 168.81 25.3176C168.275 24.5151 168.008 23.5454 168.008 22.4084C168.008 21.2715 168.275 20.324 168.81 19.5661C169.368 18.7858 170.126 18.2062 171.084 17.8273C172.065 17.426 173.18 17.2254 174.428 17.2254H178.976V16.2891C178.976 15.5088 178.731 14.8735 178.24 14.383C177.75 13.8703 176.97 13.6139 175.899 13.6139C174.852 13.6139 174.071 13.8591 173.559 14.3496C173.046 14.8177 172.712 15.4308 172.556 16.1887L168.677 14.8846C168.944 14.0375 169.368 13.2684 169.947 12.5773C170.549 11.8639 171.341 11.2955 172.321 10.8719C173.325 10.4261 174.54 10.2031 175.966 10.2031C178.151 10.2031 179.879 10.7493 181.149 11.8416C182.42 12.934 183.055 14.5168 183.055 16.59V22.7763C183.055 23.445 183.368 23.7794 183.992 23.7794H185.329V27.2571H182.52C181.696 27.2571 181.016 27.0565 180.481 26.6552C179.946 26.2539 179.678 25.7189 179.678 25.0501V25.0167H179.043C178.954 25.2842 178.753 25.6409 178.441 26.0867C178.129 26.5103 177.638 26.8893 176.97 27.2237C176.301 27.5581 175.387 27.7252 174.227 27.7252ZM174.963 24.3145C176.145 24.3145 177.103 23.9912 177.839 23.3447C178.597 22.6759 178.976 21.7954 178.976 20.703V20.3686H174.729C173.949 20.3686 173.336 20.5358 172.89 20.8702C172.444 21.2046 172.221 21.6728 172.221 22.2747C172.221 22.8766 172.455 23.367 172.923 23.746C173.392 24.125 174.071 24.3145 174.963 24.3145Z" fill="#4075DD"/>
<path d="M151.828 27.259V3.85156H156.242V23.2463H166.943V27.259H151.828Z" fill="#4075DD"/>
<path d="M142.317 27.7252C140.155 27.7252 138.382 27.2571 137 26.3208C135.618 25.3845 134.782 24.0469 134.492 22.3081L138.371 21.3049C138.527 22.0852 138.784 22.6982 139.14 23.1441C139.519 23.5899 139.976 23.9132 140.511 24.1138C141.069 24.2922 141.67 24.3813 142.317 24.3813C143.298 24.3813 144.022 24.2141 144.491 23.8797C144.959 23.5231 145.193 23.0884 145.193 22.5756C145.193 22.0629 144.97 21.6728 144.524 21.4052C144.078 21.1154 143.365 20.8814 142.384 20.703L141.448 20.5358C140.288 20.3129 139.229 20.0119 138.271 19.633C137.312 19.2317 136.543 18.6855 135.964 17.9945C135.384 17.3034 135.094 16.4117 135.094 15.3193C135.094 13.6697 135.696 12.4101 136.9 11.5407C138.104 10.649 139.686 10.2031 141.648 10.2031C143.498 10.2031 145.037 10.6155 146.263 11.4404C147.489 12.2652 148.291 13.3464 148.67 14.684L144.758 15.8878C144.58 15.0407 144.212 14.4388 143.655 14.0821C143.119 13.7254 142.451 13.547 141.648 13.547C140.846 13.547 140.233 13.6919 139.809 13.9818C139.385 14.2493 139.174 14.6282 139.174 15.1187C139.174 15.6537 139.397 16.055 139.842 16.3225C140.288 16.5677 140.89 16.7572 141.648 16.891L142.584 17.0582C143.833 17.2811 144.959 17.582 145.962 17.961C146.987 18.3177 147.79 18.8416 148.369 19.5327C148.971 20.2014 149.272 21.1154 149.272 22.2747C149.272 24.0135 148.637 25.3622 147.366 26.3208C146.118 27.2571 144.435 27.7252 142.317 27.7252Z" fill="white"/>
<path d="M127.555 27.259V3.85156H131.768V27.259H127.555Z" fill="white"/>
<path d="M116.813 27.7252C115.163 27.7252 113.703 27.3797 112.432 26.6886C111.184 25.9753 110.203 24.9832 109.49 23.7126C108.799 22.4196 108.453 20.9037 108.453 19.1648V18.7636C108.453 17.0247 108.799 15.52 109.49 14.2493C110.181 12.9563 111.151 11.9643 112.399 11.2732C113.647 10.5598 115.096 10.2031 116.746 10.2031C118.373 10.2031 119.789 10.571 120.993 11.3066C122.197 12.02 123.133 13.0232 123.802 14.3161C124.47 15.5868 124.805 17.0693 124.805 18.7636V20.2014H112.733C112.778 21.3384 113.201 22.2635 114.004 22.9769C114.807 23.6903 115.787 24.0469 116.947 24.0469C118.128 24.0469 118.998 23.7906 119.555 23.2778C120.112 22.7651 120.536 22.1966 120.826 21.5724L124.27 23.3782C123.958 23.9578 123.501 24.5931 122.899 25.2842C122.319 25.953 121.539 26.5326 120.558 27.023C119.577 27.4912 118.329 27.7252 116.813 27.7252ZM112.767 17.0582H120.525C120.435 16.0996 120.045 15.3305 119.354 14.7509C118.686 14.1712 117.805 13.8814 116.713 13.8814C115.576 13.8814 114.673 14.1712 114.004 14.7509C113.335 15.3305 112.923 16.0996 112.767 17.0582Z" fill="white"/>
<path d="M95.6154 27.7271C94.3001 27.7271 93.0629 27.4039 91.9036 26.7574C90.7667 26.0886 89.8527 25.1189 89.1616 23.8482C88.4705 22.5775 88.125 21.0393 88.125 19.2336V18.6986C88.125 16.8928 88.4705 15.3546 89.1616 14.0839C89.8527 12.8133 90.7667 11.8547 91.9036 11.2082C93.0406 10.5394 94.2778 10.205 95.6154 10.205C96.6186 10.205 97.4545 10.3276 98.1233 10.5728C98.8144 10.7958 99.3717 11.0856 99.7953 11.4423C100.219 11.7989 100.542 12.1779 100.765 12.5792H101.367V3.85156H105.58V27.259H101.434V25.2526H100.832C100.453 25.8768 99.8621 26.4453 99.0596 26.958C98.2794 27.4708 97.1313 27.7271 95.6154 27.7271ZM96.8861 24.0488C98.179 24.0488 99.2602 23.6364 100.13 22.8116C100.999 21.9644 101.434 20.7383 101.434 19.1333V18.7989C101.434 17.1938 100.999 15.9788 100.13 15.154C99.2825 14.3069 98.2013 13.8833 96.8861 13.8833C95.5931 13.8833 94.5119 14.3069 93.6425 15.154C92.773 15.9788 92.3383 17.1938 92.3383 18.7989V19.1333C92.3383 20.7383 92.773 21.9644 93.6425 22.8116C94.5119 23.6364 95.5931 24.0488 96.8861 24.0488Z" fill="white"/>
<path d="M77.3582 27.7252C75.7086 27.7252 74.2261 27.3909 72.9108 26.7221C71.5956 26.0533 70.5589 25.0836 69.801 23.8129C69.043 22.5422 68.6641 21.0151 68.6641 19.2317V18.6967C68.6641 16.9133 69.043 15.3862 69.801 14.1155C70.5589 12.8448 71.5956 11.8751 72.9108 11.2063C74.2261 10.5375 75.7086 10.2031 77.3582 10.2031C79.0079 10.2031 80.4904 10.5375 81.8057 11.2063C83.1209 11.8751 84.1575 12.8448 84.9155 14.1155C85.6735 15.3862 86.0524 16.9133 86.0524 18.6967V19.2317C86.0524 21.0151 85.6735 22.5422 84.9155 23.8129C84.1575 25.0836 83.1209 26.0533 81.8057 26.7221C80.4904 27.3909 79.0079 27.7252 77.3582 27.7252ZM77.3582 23.9801C78.6512 23.9801 79.7213 23.5676 80.5684 22.7428C81.4155 21.8957 81.8391 20.6919 81.8391 19.1314V18.797C81.8391 17.2365 81.4155 16.0438 80.5684 15.219C79.7436 14.3719 78.6735 13.9483 77.3582 13.9483C76.0653 13.9483 74.9952 14.3719 74.1481 15.219C73.301 16.0438 72.8774 17.2365 72.8774 18.797V19.1314C72.8774 20.6919 73.301 21.8957 74.1481 22.7428C74.9952 23.5676 76.0653 23.9801 77.3582 23.9801Z" fill="white"/>
<path d="M40.8438 27.259V3.85156H49.0363L53.0825 24.2495H53.6844L57.7305 3.85156H65.9231V27.259H61.6429V7.09516H61.041L57.0283 27.259H49.7386L45.7259 7.09516H45.124V27.259H40.8438Z" fill="white"/>
</svg>
