<svg width="193" height="48" viewBox="0 0 193 48" fill="none" xmlns="http://www.w3.org/2000/svg">
<path d="M25.8809 0.835632C29.1514 0.85076 32.3838 0.936447 35.0518 1.15302C36.3853 1.26127 37.5922 1.40403 38.5986 1.58954C39.5852 1.77141 40.4528 2.00746 41.0615 2.33661C43.2999 3.54779 45.0852 5.89223 45.7861 8.2995V8.30048C45.9338 8.80858 46.0438 9.58106 46.1309 10.4968C46.2196 11.4303 46.2895 12.5698 46.3438 13.8434C46.4523 16.392 46.4977 19.507 46.4971 22.6442C46.496 28.5084 46.3334 34.5206 46.1045 37.0768L46.0576 37.5407C45.9195 38.7547 45.6467 39.9518 45.0176 41.1042C43.4343 44.0059 40.9574 45.418 38.0215 46.2624L37.9326 46.2878L37.8408 46.2927C33.5256 46.5485 29.083 46.4201 24.7822 46.3913L22.9482 46.3864C18.967 46.3953 14.5559 46.6956 10.4668 46.2809C9.07724 46.1402 7.59321 45.8708 6.24219 45.1227H6.24121C4.32135 44.0584 2.48468 42.0739 1.71582 39.8923L1.57617 39.4538C1.42125 38.9052 1.30176 38.0212 1.20508 36.9499C1.10661 35.8587 1.0268 34.5122 0.966797 33.0026C0.846741 29.9821 0.803986 26.2823 0.84668 22.612C0.889359 18.943 1.01764 15.291 1.24219 12.3688C1.35436 10.909 1.49228 9.61762 1.65723 8.59247C1.73963 8.08039 1.83075 7.62302 1.93262 7.23798C2.03108 6.86579 2.1521 6.50904 2.31445 6.23114L2.31543 6.23016C4.01008 3.33564 6.53073 1.91204 9.58398 1.15399L9.67285 1.13153L9.76367 1.12958C12.5742 1.05846 19.3392 0.805386 25.8809 0.835632Z" fill="#17171B" stroke="#D3B796" stroke-width="1.66667"/>
<path d="M11.6641 13.0001L17.1061 13.0032C19.2786 15.5672 21.5416 18.503 23.6672 21.1417L30.2095 13.0013L35.6609 13.0064L35.6641 34.3334L31.1629 34.3198V23.6129V19.6387L23.6672 28.7408L16.1684 19.6358L16.1652 34.3296L11.6672 34.3223L11.6641 13.0001Z" fill="#D3B796"/>
<path d="M74.1105 18.0238C73.984 16.7515 73.4222 15.7396 72.4252 14.9881C71.4282 14.2366 70.1745 13.8609 68.6641 13.8609C67.6001 13.8609 66.6626 14.0432 65.8516 14.4078C65.048 14.7723 64.4156 15.2783 63.9542 15.9256C63.5004 16.5655 63.2734 17.2947 63.2734 18.1131C63.2734 18.7158 63.4036 19.2441 63.6641 19.6979C63.9245 20.1518 64.2742 20.5424 64.7132 20.8698C65.1596 21.1898 65.6507 21.465 66.1864 21.6957C66.7295 21.9264 67.2764 22.1198 67.827 22.2761L70.2377 22.968C70.9669 23.1689 71.6961 23.4256 72.4252 23.7381C73.1544 24.0506 73.8203 24.445 74.423 24.9211C75.0331 25.3899 75.5205 25.9665 75.885 26.6511C76.2571 27.3281 76.4431 28.1429 76.4431 29.0953C76.4431 30.3155 76.1269 31.413 75.4944 32.3877C74.862 33.3624 73.9542 34.1362 72.7712 34.7091C71.5882 35.2746 70.1708 35.5573 68.519 35.5573C66.9639 35.5573 65.6135 35.3006 64.4676 34.7872C63.3218 34.2664 62.4215 33.5484 61.7667 32.6332C61.112 31.718 60.7437 30.6578 60.6618 29.4524H62.8047C62.8791 30.3527 63.1767 31.1153 63.6975 31.7403C64.2184 32.3653 64.8955 32.8415 65.7288 33.1689C66.5621 33.4889 67.4922 33.6488 68.519 33.6488C69.6574 33.6488 70.6693 33.4591 71.5547 33.0796C72.4475 32.6927 73.147 32.157 73.6529 31.4725C74.1663 30.7805 74.423 29.977 74.423 29.0618C74.423 28.288 74.2221 27.6406 73.8203 27.1198C73.4185 26.5915 72.8568 26.1488 72.135 25.7917C71.4208 25.4345 70.5911 25.1183 69.6462 24.843L66.9118 24.0395C65.1187 23.5037 63.7273 22.7634 62.7377 21.8185C61.7481 20.8735 61.2533 19.6682 61.2533 18.2024C61.2533 16.9747 61.5807 15.8959 62.2355 14.9658C62.8977 14.0283 63.7906 13.2991 64.9141 12.7783C66.045 12.25 67.3136 11.9859 68.7199 11.9859C70.141 11.9859 71.3984 12.2463 72.4922 12.7671C73.5859 13.288 74.4528 14.006 75.0926 14.9211C75.74 15.8289 76.0859 16.8631 76.1306 18.0238H74.1105ZM83.2243 14.1845V12.3095H99.798V14.1845H92.5547V35.1667H90.4676V14.1845H83.2243ZM122.874 12.3095H124.961V27.4435C124.961 28.9985 124.596 30.3899 123.867 31.6176C123.138 32.8378 122.122 33.8014 120.82 34.5082C119.526 35.2076 118.019 35.5573 116.3 35.5573C114.589 35.5573 113.082 35.2039 111.78 34.497C110.478 33.7902 109.462 32.8267 108.733 31.6064C108.004 30.3862 107.64 28.9985 107.64 27.4435V12.3095H109.727V27.2984C109.727 28.5112 109.998 29.5938 110.541 30.5462C111.084 31.4911 111.847 32.2351 112.829 32.7783C113.819 33.3214 114.976 33.593 116.3 33.593C117.625 33.593 118.782 33.3214 119.771 32.7783C120.761 32.2351 121.523 31.4911 122.059 30.5462C122.602 29.5938 122.874 28.5112 122.874 27.2984V12.3095ZM140.866 35.1667H134.17V12.3095H141.268C143.448 12.3095 145.312 12.7634 146.859 13.6711C148.414 14.5789 149.605 15.881 150.431 17.5774C151.257 19.2738 151.67 21.3088 151.67 23.6823C151.67 26.0781 151.246 28.1354 150.397 29.8542C149.557 31.5655 148.329 32.8787 146.714 33.7939C145.107 34.7091 143.158 35.1667 140.866 35.1667ZM136.257 33.2917H140.743C142.708 33.2917 144.352 32.9048 145.676 32.131C147.001 31.3572 147.994 30.2523 148.656 28.8162C149.318 27.3802 149.65 25.6689 149.65 23.6823C149.642 21.7106 149.315 20.0142 148.667 18.593C148.028 17.1719 147.075 16.0819 145.81 15.3229C144.553 14.564 142.998 14.1845 141.145 14.1845H136.257V33.2917ZM161.958 12.3095V35.1667H159.871V12.3095H161.958ZM189.917 23.7381C189.917 26.1191 189.493 28.1912 188.645 29.9546C187.796 31.7106 186.628 33.0722 185.14 34.0395C183.659 34.9993 181.956 35.4792 180.028 35.4792C178.101 35.4792 176.394 34.9993 174.906 34.0395C173.425 33.0722 172.261 31.7106 171.412 29.9546C170.572 28.1912 170.151 26.1191 170.151 23.7381C170.151 21.3572 170.572 19.2887 171.412 17.5328C172.261 15.7694 173.429 14.4078 174.917 13.4479C176.405 12.4807 178.109 11.997 180.028 11.997C181.956 11.997 183.659 12.4807 185.14 13.4479C186.628 14.4078 187.796 15.7694 188.645 17.5328C189.493 19.2887 189.917 21.3572 189.917 23.7381ZM187.886 23.7381C187.886 21.692 187.543 19.9398 186.859 18.4814C186.174 17.0156 185.241 15.8959 184.057 15.122C182.874 14.3482 181.531 13.9613 180.028 13.9613C178.533 13.9613 177.194 14.3482 176.011 15.122C174.828 15.8959 173.89 17.0119 173.198 18.4703C172.514 19.9286 172.171 21.6845 172.171 23.7381C172.171 25.7842 172.514 27.5365 173.198 28.9948C173.883 30.4531 174.816 31.5729 175.999 32.3542C177.182 33.128 178.525 33.5149 180.028 33.5149C181.531 33.5149 182.874 33.128 184.057 32.3542C185.248 31.5804 186.185 30.4643 186.87 29.006C187.555 27.5402 187.893 25.7842 187.886 23.7381Z" fill="white"/>
</svg>
