<svg width="48" height="48" viewBox="0 0 48 48" fill="none" xmlns="http://www.w3.org/2000/svg">
<path d="M25.8809 0.835632C29.1514 0.85076 32.3838 0.936447 35.0518 1.15302C36.3853 1.26127 37.5922 1.40403 38.5986 1.58954C39.5852 1.77141 40.4528 2.00746 41.0615 2.33661C43.2999 3.54779 45.0852 5.89223 45.7861 8.2995V8.30048C45.9338 8.80858 46.0438 9.58106 46.1309 10.4968C46.2196 11.4303 46.2895 12.5698 46.3438 13.8434C46.4523 16.392 46.4977 19.507 46.4971 22.6442C46.496 28.5084 46.3334 34.5206 46.1045 37.0768L46.0576 37.5407C45.9195 38.7547 45.6467 39.9518 45.0176 41.1042C43.4343 44.0059 40.9574 45.418 38.0215 46.2624L37.9326 46.2878L37.8408 46.2927C33.5256 46.5485 29.083 46.4201 24.7822 46.3913L22.9482 46.3864C18.967 46.3953 14.5559 46.6956 10.4668 46.2809C9.07724 46.1402 7.59321 45.8708 6.24219 45.1227H6.24121C4.32135 44.0584 2.48468 42.0739 1.71582 39.8923L1.57617 39.4538C1.42125 38.9052 1.30176 38.0212 1.20508 36.9499C1.10661 35.8587 1.0268 34.5122 0.966797 33.0026C0.846741 29.9821 0.803986 26.2823 0.84668 22.612C0.889359 18.943 1.01764 15.291 1.24219 12.3688C1.35436 10.909 1.49228 9.61762 1.65723 8.59247C1.73963 8.08039 1.83075 7.62302 1.93262 7.23798C2.03108 6.86579 2.1521 6.50904 2.31445 6.23114L2.31543 6.23016C4.01008 3.33564 6.53073 1.91204 9.58398 1.15399L9.67285 1.13153L9.76367 1.12958C12.5742 1.05846 19.3392 0.805386 25.8809 0.835632Z" fill="#17171B" stroke="#D3B796" stroke-width="1.66667"/>
<path d="M11.6641 13.0001L17.1061 13.0032C19.2786 15.5672 21.5416 18.503 23.6672 21.1417L30.2095 13.0013L35.6609 13.0064L35.6641 34.3334L31.1629 34.3198V23.6129V19.6387L23.6672 28.7408L16.1684 19.6358L16.1652 34.3296L11.6672 34.3223L11.6641 13.0001Z" fill="#D3B796"/>
</svg>
